/* XPM */
static const char *Bancada8086Frm_WxStaticBitmap1_XPM[]={
/* Bancada8086Frm_WxStaticBitmap1 */
"43 43 163 2",
"      c None",
" 0    c #F1F1F1",
" 1    c #EEEEEE",
" 2    c #EDEDED",
" 3    c #EFEFEF",
" 4    c #F4F4F4",
" 5    c #F5F5F5",
" 6    c #DADADA",
" 7    c #D0D0D0",
" 8    c #BFBFBF",
" 9    c #B4B4B4",
" a    c #AFAFAF",
" b    c #ABABAB",
" c    c #ACACAC",
" d    c #C0C0C0",
" e    c #C9C9C9",
" f    c #DBDBDB",
" g    c #F2F2F2",
" h    c #F7F7F7",
" i    c #F3F3F3",
" j    c #D2D2D2",
" k    c #B3B3B3",
" l    c #A4A4A4",
" m    c #A9A9A9",
" n    c #AAAAAA",
" o    c #ADADAD",
" p    c #AEAEAE",
" q    c #A6A6A6",
" r    c #A5A5A5",
" s    c #B8B8B8",
" t    c #D8D8D8",
" u    c #F9F9F9",
" v    c #C8C8C8",
" w    c #A8A8A8",
" x    c #B1B1B1",
" y    c #B2B2B2",
" z    c #B0B0B0",
" A    c #F8F8F8",
" B    c #DFDFDF",
" C    c #B5B5B5",
" D    c #B7B7B7",
" E    c #B6B6B6",
" F    c #E6E6E6",
" G    c #EBEBEB",
" H    c #E8E8E8",
" I    c #C3C3C3",
" J    c #9C9C9C",
" K    c #909090",
" L    c #8B8B8B",
" M    c #838383",
" N    c #808080",
" O    c #868686",
" P    c #8D8D8D",
" Q    c #929292",
" R    c #A7A7A7",
" S    c #CCCCCC",
" T    c #FAFAFA",
" U    c #BCBCBC",
" V    c #A1A1A1",
" W    c #7F7F7F",
" X    c #818181",
" Y    c #828282",
" Z    c #7C7C7C",
" &    c #7D7D7D",
"0     c #878787",
"00    c #BABABA",
"01    c #F6F6F6",
"02    c #BEBEBE",
"03    c #A0A0A0",
"04    c #848484",
"05    c #717171",
"06    c #5C5C5C",
"07    c #535353",
"08    c #636363",
"09    c #777777",
"0a    c #767676",
"0b    c #6C6C6C",
"0c    c #686868",
"0d    c #555555",
"0e    c #5F5F5F",
"0f    c #757575",
"0g    c #858585",
"0h    c #B9B9B9",
"0i    c #FEFEFE",
"0j    c #ECECEC",
"0k    c #FCFCFC",
"0l    c #BDBDBD",
"0m    c #BBBBBB",
"0n    c #888888",
"0o    c #5D5D5D",
"0p    c #9E9E9E",
"0q    c #D4D4D4",
"0r    c #D1D1D1",
"0s    c #939393",
"0t    c #585858",
"0u    c #696969",
"0v    c #CBCBCB",
"0w    c #5A5A5A",
"0x    c #FBFBFB",
"0y    c #EAEAEA",
"0z    c #E9E9E9",
"0A    c #7E7E7E",
"0B    c #898989",
"0C    c #D9D9D9",
"0D    c #E2E2E2",
"0E    c #616161",
"0F    c #E5E5E5",
"0G    c #6E6E6E",
"0H    c #8A8A8A",
"0I    c #FDFDFD",
"0J    c #6A6A6A",
"0K    c #959595",
"0L    c #E4E4E4",
"0M    c #E7E7E7",
"0N    c #E3E3E3",
"0O    c #8E8E8E",
"0P    c #D3D3D3",
"0Q    c #949494",
"0R    c #797979",
"0S    c #E1E1E1",
"0T    c #DDDDDD",
"0U    c #DEDEDE",
"0V    c #DCDCDC",
"0W    c #E0E0E0",
"0X    c #626262",
"0Y    c #8F8F8F",
"0Z    c #9A9A9A",
"0&    c #C2C2C2",
"1     c #D7D7D7",
"10    c #CFCFCF",
"11    c #CDCDCD",
"12    c #545454",
"13    c #C1C1C1",
"14    c #C7C7C7",
"15    c #D5D5D5",
"16    c #CECECE",
"17    c #7A7A7A",
"18    c #6B6B6B",
"19    c #919191",
"1a    c #C5C5C5",
"1b    c #C4C4C4",
"1c    c #5B5B5B",
"1d    c #CACACA",
"1e    c #707070",
"1f    c #676767",
"1g    c #C6C6C6",
"1h    c #646464",
"1i    c #9B9B9B",
"1j    c #999999",
"1k    c #979797",
"1l    c #727272",
"1m    c #6F6F6F",
"1n    c #989898",
"1o    c #A2A2A2",
"1p    c #787878",
"1q    c #7B7B7B",
"1r    c #9D9D9D",
"1s    c #9F9F9F",
"1t    c #747474",
"1u    c #A3A3A3",
"1v    c #969696",
"1w    c #D6D6D6",
"1x    c #8C8C8C",
"     0   1 0 1 0 0 0 2 0 3 4 5   6 7 8 9 a b c 9 d e f g h 0 g 1 3   g 3 2 4 0 1      ",
" 1 g 1       i 3 3 2   4 h j k l m n b b o c c p q a r l s t 5 i 0 0   2 4 1 1 0      ",
" i 1 2 5 3   2 1 3 5 u v r o w x p c o a p o o p y n z b c w w j A 2 2 i 3 0 4 2      ",
" 2 i 5 2 2 0 0 4 A B w o 9 p k x k x C D E D D y k o k 9 a y x m a F A   1 3 0 0      ",
" 3 g G   4 i H A I w z y x x E k a J K L M N O P Q l x E y z k p z R S T i 1   1      ",
" 0 3 3 0 3   h U z 9 E y C 9 V O W X Y N W N N Z Y Z &0  r00 C s 9 C k 8 5   0 g      ",
" 0 g 3   201 E z C 9 k0203 M Z0405060708090a0b0c0d0e0f M &0g q00 E x C a0h0i0j        ",
" 3 3 i 20k0l C C E0h0m0n W04080o0p0q T A g A T h i0r0s0t0u0n X0s0m0h D0h 9 d u 1      ",
" 0 1   A0v 90h s00 C M O0a0w0m0x 0 30j0y0z0y0y0z0y 1 i T z070A0n0B U0m0m0m x0C g 2 0  ",
" g 1  0D x U s U C O0n0E04 5 4 H G0z H H0z0y0y0y H G 10F   i0G050H0B0h0h D00 k 1 5   1",
" 3  0I0h s0m0m U0n0g0J0K u0F0L0M0F0L0L0L0F0F0F0L0L0N0L0M0F B h090f0O P I U d 90l g g 3",
" 0 i0P s02 s v0Q0B0f0R 1 f0S0C0T B0U0U0U0U0T0V f0V B0C0U0V0W0U 30X W0Y0Z020l0& E f 5 0",
" 0 0 E0&0l I o04 O070U f 60q 61 1 1 1 1 1 1 1 1 1  60q0q t1 10 f1112 P0O D d0l0213 g  ",
" 00U130l13140 0s0u Q t 7 7 j j 70r0r 7 7 70r0r j 7110r0r0q1015160U1718190K1a0l13 s0N  ",
" i140m1b d x P X1c s 7 S1014110v0v0v0v1d1d1d1d1d e S S e v0v1a1611 R0e0Y0Y E e d0216 0",
" 3 8 I I1d0Q0s1e1f1g141b1g1a1a1g1a1a1a1a1a1a1a1a1a1b1b1a1a1a14 I14 E1h051i0p14 I1b0l g",
"0W d v I I0Y0H050u0&13 81313 813 d d d d d d d d 813 d0l0l 8 d0213 D0J0u1j1k1a1b1a d F",
" 61b1b e C0Q Y1l0G z I0m s0l0m000000000000000000 U D0h0l0m U U s00 q1m050B1n U e1g0&0W",
"0P141a16 w1j Z0f1e1o C s E E0h k C C C C C C C 9 9 E D 9 y k 9 C U0O1l09 W0p y1d v1g t",
"16 e0v161o1i170R1p X D x 9 x z y x x x x z z z z o k a o C k c a k1q0f1p W1o o S1d e j",
" S1d1616031r0R Z Z0f1s k n c n o c c c c c c c c c b m c o b c y0s1t1q17 Z1o c 70v S10",
" S S110r03 V0R W Z M1q V o m n R w w w w w w w w b q n m1o w c0p Z Z W W17 m o101111 7",
"0r16110P q r & Y04 N N W r1o q r l l l l l l l l l1o l r q w1n Z0A M Y N X o y1610160q",
"1510 7 j a q Y0g0g M0g04 W0K r V V V V03030303031s1u1s031o K N04 O M04 N0n n E15 716 t",
" f 7 71  E R0Y0g0n0n O0 0n M0 1v0p0p0p0p0p1r1r1r0p1s1i Q0  Y0g0B0 0g O0g0s p021w 7150U",
"0W j1 0q e w1n0B0  L1x0 0H P0 0B0B1x K0K1k1k0K0Q K1x0n0 0n0H0B0 0n P0n O1u b110q j 70F",
"0j0r0P0q1  R c0g0O L1x P L P0Y0n L1x1x P1x L0H0B1x L0H L1x0O P1x0H1x1x0B a y1 1w1w10 2",
" g0P0q1w t C y Q P19 L19 K0H Q1919 K0O P1x P0O0Y P K19 K P1x P0Y0O P P1k D020T151 1w 0",
" 30U 61  t 7 o o1x1v Q0Y0K19 P0s0Y K19 Q0s0s0s0s K K K K1919 K K0Y1v0n E k0P 61 150D 0",
" 30j0q0V0C0V U y1s P0K0K0s1k K0Q0Q0Q0Q0Q0Q0s Q190K0Q0s0s0K0K0K0Q Q0Y V U d0S1w0T1w0y  ",
" 0 g t0T f0V15 C D0K0K0Z0s1k0Z1n1k1k1v0K0K1v1k1n1v1k1n1k0K0K0K1v1v0K I E0V0V0V0T0W 1  ",
" 3 0 11w0U0W f1d0m k1n1k1r1k1i1n0Z0Z0Z0Z0Z0Z1j1j1n1n1j1j0Z0Z1j1j0K0l02 7 B0U0T0C0j 3 0",
" 3 g 20D0V B0S0W021b z J1j1i0p0Z1r J1i1i J1r J1i1r0Z1j1r1r1r J1v U1b0v0U0L0V0S B      ",
" 1 0 00y0D0U B0D0F130&001o1i0Z1o1s1s0p0p0p0p0p0p J1o1o0p1s1k0p1b13140L0S f0S0U g      ",
" 3   g 00z0S B0D B H140&14 o031s1u1u1u1u1o1o1o1o1o V1s031r a e I 70S0N0F0W0T 1 0      ",
" 0 3 3 0  0z0N0S F0U G t d v d c0303 V1u1u1u1u l V0p1o o1b e0&150L F0S0S0L0y 0 1      ",
" 0   1 3 0 30y0F F H0S0F0F11 I S1a02 9 o m w n c C0&1a v1g S0D0z H0W F0D H i 2 g      ",
" 3 0 0 3 3 0  0j0D F F F F0z0S16 v1g1g e0v0v1d0v1g I0v0P0S 2 H F0N0M0F 2   1 g        ",
" 3 0 g   3   0   2 H0y H H0y0z 2 G0L0V1w j0r j150V H0M0z G0L F0y H0y0j   0 0   1      ",
"       3   0   3 0 30z0z0z0M0z0y0y0z0y 2 2 G G 20y G G H0z0j0z0M G 1 0   3 0   0      ",
"                 3     3 2 G0y0z0y G G G G G G G0y G0y0y 2 2 2 3                      ",
"                   0 0   3 3 1 1 2 2 2 2 2 2 2 2 2 3 2 2 3 3 3                        ",
"                               0     3 3 3 3 3 3 0 g   3     3 0                      "};

