/* XPM */
static const char *Bancada8086Frm_frmNewForm_XPM[]={
/* Bancada8086Frm_frmNewForm */
"32 32 7 1",
"      c None",
"0     c #000080",
"1     c #0000FF",
"2     c #00FFFF",
"3     c #FF0000",
"4     c #808080",
"5     c #C0C0C0",
"                                ",
"                                ",
"                                ",
"  000000000000000000000000000   ",
" 01111111111111111111111111110  ",
" 001010101010101010102121203404 ",
" 000000000000000000000000000004 ",
" 055555555555555555555555555504 ",
" 0                           04 ",
" 0                           04 ",
" 0                           04 ",
" 0                           04 ",
" 0                           04 ",
" 0                           04 ",
" 0                           04 ",
" 0                           04 ",
" 0                           04 ",
" 0                           04 ",
" 0                           04 ",
" 0                           04 ",
" 0                           04 ",
" 0                           04 ",
" 0                           04 ",
" 0                           04 ",
" 0                           04 ",
" 0                           04 ",
" 000000000000000000000000000004 ",
"  44444444444444444444444444444 ",
"                                ",
"                                ",
"                                ",
"                                "};

